<?xml version="1.0" encoding="utf-8"?>
<!-- Generator: Adobe Illustrator 25.4.0, SVG Export Plug-In . SVG Version: 6.00 Build 0)  -->
<svg version="1.1" id="Слой_1" xmlns="http://www.w3.org/2000/svg" xmlns:xlink="http://www.w3.org/1999/xlink" x="0px" y="0px"
	 viewBox="601 712 1797 553" xml:space="preserve">
<style type="text/css">
	.st0{fill:#FFFFFF;}
</style>
<g>
	<path class="st0" d="M1257,831.7l93.6,158.4l95.1-158.4h31.7L1369.4,1012l105.5,182.2h-31.7l-92.6-157.4l-92.1,157.4h-31.7
		l105.5-182.2l-106.9-180.2H1257z"/>
	<path class="st0" d="M1543.1,831.7h148.5c44.1,0,84.7,21.3,84.7,105.5c0,94.1-47,102.5-68.3,104l77.7,153H1755l-77.2-152
		c-8.9-0.5-105.5-5.9-106.4-6.4v158.4h-28.2V831.7z M1691.7,1012c28.2,0,55.9-4,55.9-74.8c0-68.8-28.7-76.7-55.9-76.7h-120.3V1012
		H1691.7z"/>
	<path class="st0" d="M1853.1,831.7h145.1c39.1,0,86.6,14.4,86.6,103c0,102.5-50,107.9-86.6,107.9c-19.8,0-114.4-6.9-116.8-8.4
		v159.9h-28.2V831.7z M1998.1,1013.9c30.2,0,58.4-8.9,57.9-79.2c-0.5-68.8-33.7-74.3-57.9-74.3h-116.8v153.5H1998.1z"/>
	<path class="st0" d="M2172.4,896.1c0-48.5,29.7-65.8,62.4-64.4l153,6.9V860h-153c-27.7,0-34.2,14.9-34.2,36.1v103.5l167.3,4v21.8
		l-167.3,4v164.9h-28.2V896.1z"/>
</g>
<g>
	<path class="st0" d="M1130,832.6c-0.6-11.8-1.5-19.9-1.5-19.9c-0.2-1.8-1.2-3.6-2.6-4.6c-32.9-25-77.3-45.9-121.8-57.5
		c-5.8-1.5-10.5,4.8-7.5,9.9c26.8,45.3,31.2,94.4,12.4,138.1c-5.5,12.7-12.8,24.6-21.8,35.6c-1.5-7.1-3.7-14.1-6.6-20.9
		c-0.7-1.7-1.4-3.3-2.2-4.9c13.5-22.3,19.6-46.5,18.2-72.6c-1.5-29-12.5-60.3-32.6-93.3c-0.8-1.3-1.9-2.2-3.3-2.8
		c-119.4-45.6-256.5,5.5-345,68.5c-1.5,1-2.5,2.7-2.8,4.6c-2.2,17.3-2.7,36-1.7,55.1c1.4,26.3,5.7,53.5,12.8,79.1
		c1.6,5.7,9.4,6.7,12.3,1.5c25.9-45.9,66.1-74.2,113.4-79.7c14.5-1.7,29.3-1.2,44.1,1.5c-2,1.7-3.9,3.5-5.8,5.4
		c-4.7,4.7-8.9,9.7-12.7,15c-55.9-1.7-103,30.5-138.3,95.2c-0.7,1.3-1,2.8-0.7,4.3c20.2,126.2,133,219.4,231.8,264.5
		c0,0,0.1,0,0.1,0c1.8,0.8,3.8,0.7,5.3,0.1c38.1-16,78.5-44,110.7-76.7c4.2-4.3,1.1-11.5-4.9-11.4c-52.7,0.6-97.3-20.2-125.8-58.3
		c-8.3-11.2-15-23.6-20.1-37c8.8,3,17.9,4.9,27.2,5.8c26.8,48,77.8,72,150.5,70.2c1.5,0,2.9-0.6,4.1-1.5
		C1132.2,1051,1132.7,882.1,1130,832.6z M1021.4,904c18.6-43.2,16.6-91-5.5-136c35.6,11,71.1,28.4,98.3,48.1
		c-1.1,9.9-5.2,35.4-18.7,64.3c-10.1,21.8-23.5,41.1-39.8,57.6c-18.9,19.2-41.9,34.3-68.2,45.3c1.6-7.8,2.4-15.7,2.4-23.8
		c0-2.5-0.1-5-0.2-7.6C1003.2,937.4,1013.9,921.4,1021.4,904z M659,796.3c83.6-48.9,195.7-81.5,294.7-44.7
		c18.2,30.3,28.1,58.9,29.5,85c1.1,20.6-3.1,40-12.5,58.1c-4.4-6.8-9.6-13.1-15.4-18.9c-10.9-10.9-23.5-19.4-37.6-25.3
		c-14.6-6.2-30.1-9.3-46-9.3c-6.2,0-12.4,0.5-18.5,1.4c0,0-6.8,1.4-12,2.7c-24.1-18.9-50.4-32.1-78.2-39.2
		c-23-5.9-47.1-7.8-71.6-5.5c-29.4,2.7-52,10.6-63.2,15.2c9.6-6.6,19.5-12.9,29.7-18.7L659,796.3z M748.1,855.6
		c-46.7,5.5-87.1,31.1-115.1,72.7c-8-34.9-10.7-73.1-7.8-105.7c7.6-3.5,32.8-13.9,66.9-17c23.9-2.2,47.3-0.3,69.7,5.5
		c25.9,6.7,50.5,18.8,73.1,35.9c-3.1,1-6.2,2.2-9.3,3.5c-6.2,2.6-12,5.7-17.6,9.3C787.9,854.7,767.8,853.3,748.1,855.6z
		 M836.1,1223.3c-84.2-47.9-168.4-128.8-186.1-232.9c31-55.9,70.2-84.8,117.1-86.3c-1.6,3-3.1,6.1-4.4,9.2
		c-6.2,14.6-9.3,30.1-9.3,46c0,16,3.1,31.5,9.3,46c4.2,9.9,9.7,19.1,16.3,27.5c2.4,3.3,5.3,6.4,7.6,8.8c-4.5,31.3-2.7,61.6,5.5,90.1
		c6.6,22.8,17.2,44.5,31.5,64.5c12.4,17.2,25.3,30.1,35.2,38.7C851.1,1231.4,843.5,1227.5,836.1,1223.3L836.1,1223.3z M842.9,1116.4
		c28.1,37.7,70.5,59.8,120.5,63.3c-27.3,25.3-59.1,46.7-89.7,60.4c-8.8-6.5-28.1-22.3-45.9-47.1c-14-19.5-24.3-40.6-30.7-62.8
		c-7.6-26.6-9.6-54.9-5.8-84.1c7.8,7.2,16.4,13.3,25.7,18.2C822.8,1083.5,831.4,1101,842.9,1116.4z M868.9,1063.9
		c-5.2-0.1-10.3-0.6-15.3-1.5c-8.8-1.5-17.4-4.2-25.4-7.9c-5.5-2.5-10.8-5.5-15.8-9c-5.2-3.6-10.1-7.6-14.6-12.2
		c-1.5-1.5-3-3.1-4.4-4.7c-4-4.5-7.6-9.4-10.7-14.4c-10.1-16.3-15.5-35.1-15.5-54.8c0-19.7,5.4-38.5,15.5-54.8
		c2.7-4.3,5.7-8.5,9-12.4c1.9-2.3,4-4.5,6.1-6.7c4.1-4.1,8.5-7.8,13.2-11.2c4.9-3.5,10-6.6,15.4-9.1c7.3-3.5,15.1-6.2,23-7.9
		c5.9-1.3,11.9-2,18-2.3c1.4-0.1,2.9-0.1,4.3-0.1c27.9,0,54.2,10.9,73.9,30.6c6.8,6.8,12.5,14.3,17.1,22.5c2.5,4.5,4.7,9.1,6.6,13.9
		c3.1,8.1,5.2,16.7,6.2,25.5c0.5,4,0.7,8,0.7,12.1c0,1.9-0.1,3.8-0.2,5.7c-0.5,8.5-1.9,16.8-4.4,24.8c-1.8,5.8-4,11.4-6.8,16.8
		c-4.9,9.7-11.4,18.7-19.3,26.6c-19.7,19.7-46,30.6-73.9,30.6C870.8,1063.9,869.8,1063.9,868.9,1063.9z M1008.7,1134
		c-62.9,1.1-107.1-17.9-132.1-56.5c14.2-0.6,28-3.7,41.1-9.2c14.1-6,26.7-14.5,37.6-25.3c10.9-10.9,19.4-23.5,25.3-37.6
		c0.7-1.6,1.3-3.3,1.9-4.9c1-2.6,2.4-7.3,3.4-11c28.5-11.3,53.2-27.4,73.5-47.9c16.7-16.9,30.4-36.7,40.8-59
		c9-19.3,13.9-36.9,16.5-49.7c0.3,4.8,0.4,9.7,0.5,14.5l0,9.3C1117.3,921.1,1104.8,1054.5,1008.7,1134z"/>
	<path class="st0" d="M906.2,924.2c-4.6-4.6-9.9-8.2-15.8-10.7c-6.1-2.6-12.7-3.9-19.4-3.9c-6.7,0-13.2,1.3-19.4,3.9
		c-5.9,2.5-11.3,6.1-15.8,10.7c-4.6,4.6-8.2,9.9-10.7,15.8c-2.6,6.1-3.9,12.7-3.9,19.4c0,6.7,1.3,13.2,3.9,19.4
		c2.5,5.9,6.1,11.3,10.7,15.8c4.6,4.6,9.9,8.2,15.8,10.7c6.1,2.6,12.7,3.9,19.4,3.9c6.7,0,13.2-1.3,19.4-3.9
		c5.9-2.5,11.3-6.1,15.8-10.7c4.6-4.6,8.2-9.9,10.7-15.8c2.6-6.1,3.9-12.7,3.9-19.4c0-6.7-1.3-13.2-3.9-19.4
		C914.4,934.1,910.8,928.8,906.2,924.2z"/>
</g>
</svg>
